<?xml version="1.0" standalone="no"?>
<!DOCTYPE svg PUBLIC "-//W3C//DTD SVG 20010904//EN"
 "http://www.w3.org/TR/2001/REC-SVG-20010904/DTD/svg10.dtd">
<svg version="1.0" xmlns="http://www.w3.org/2000/svg"
 width="512.000000pt" height="512.000000pt" viewBox="0 0 512.000000 512.000000"
 preserveAspectRatio="xMidYMid meet">
<metadata>
Created by potrace 1.11, written by Peter Selinger 2001-2013
</metadata>
<g transform="translate(0.000000,512.000000) scale(0.100000,-0.100000)"
fill="#000000" stroke="none">
<path d="M1194 5103 c13 -41 117 -500 144 -638 34 -170 109 -629 148 -905 45
-322 43 -690 -3 -690 -21 0 -165 50 -182 64 -12 9 -13 8 -8 -8 6 -14 4 -17 -8
-12 -29 11 -15 -15 17 -32 44 -24 128 -102 128 -119 0 -8 -9 -27 -19 -42 -22
-30 -56 -129 -48 -137 3 -3 10 12 17 33 7 21 17 43 22 48 6 6 7 5 4 -5 -3 -8
-10 -50 -15 -93 -14 -116 14 -479 40 -529 5 -10 9 -25 9 -35 0 -9 4 -30 10
-47 5 -17 12 -42 14 -56 9 -42 124 -169 174 -191 17 -8 32 -17 32 -20 0 -4 37
-17 82 -29 113 -30 233 -23 324 20 22 11 45 20 50 20 5 0 17 8 26 17 8 10 41
40 72 68 31 27 56 58 56 67 0 10 9 27 20 38 22 22 26 70 8 88 -10 10 -10 15 1
21 9 6 0 11 -30 16 -37 6 -41 9 -26 20 21 15 22 25 2 25 -8 0 -15 -4 -15 -10
0 -5 -9 -10 -20 -10 -10 0 -28 -10 -40 -22 -11 -12 -20 -16 -20 -10 0 9 -5 10
-19 3 -10 -6 -34 -10 -53 -9 -18 1 -60 -9 -92 -21 -57 -21 -76 -21 -76 2 0 14
-68 16 -89 3 -11 -7 -13 -5 -7 10 4 10 4 15 0 12 -7 -8 -64 19 -64 30 0 4 -22
12 -48 19 -38 9 -63 25 -112 72 -35 34 -67 61 -71 61 -5 0 -9 7 -9 15 0 8 -5
15 -11 15 -6 0 -9 6 -6 14 3 7 0 24 -7 37 -7 13 -18 45 -25 70 -12 43 -11 48
13 90 15 24 38 69 53 99 15 30 30 57 34 60 4 3 10 17 13 30 2 14 10 50 15 80
6 30 15 58 19 62 5 5 21 -36 36 -91 24 -86 33 -104 69 -139 86 -84 255 -140
487 -162 132 -12 184 -24 221 -51 26 -18 27 -18 32 1 4 15 14 20 40 20 l35 0
-2 -73 c-2 -50 -13 -100 -36 -167 -33 -95 -108 -243 -142 -280 -10 -10 -18
-21 -18 -24 0 -15 -92 -102 -138 -132 -92 -59 -162 -79 -287 -79 -134 0 -233
30 -307 93 -9 8 -22 11 -29 6 -7 -4 -10 -3 -6 3 3 5 -16 31 -42 57 -27 27 -51
44 -53 39 -3 -4 -3 -2 -2 5 2 6 -9 34 -25 61 -16 26 -32 58 -36 71 -5 17 -9
19 -16 9 -6 -10 -12 -4 -23 21 -8 19 -15 29 -16 21 0 -24 -30 9 -30 33 0 12
-17 38 -37 57 -60 57 -73 75 -60 88 8 8 5 11 -11 11 -12 0 -22 3 -22 8 -3 51
-21 146 -30 152 -12 7 -18 458 -6 478 3 6 2 13 -4 17 -16 10 -18 -7 -26 -255
-10 -293 -10 -299 -2 -445 13 -217 99 -499 193 -630 12 -16 42 -68 66 -115
115 -223 297 -407 570 -575 200 -124 249 -159 249 -182 0 -18 6 -23 28 -23 21
0 24 -2 12 -10 -8 -5 -15 -13 -15 -17 -2 -27 -20 -55 -43 -68 l-27 -16 41 3
c28 2 40 0 37 -8 -3 -8 42 -14 156 -19 89 -4 161 -11 161 -16 0 -5 17 -2 37 6
37 16 185 15 226 0 9 -4 25 -4 35 0 9 4 36 7 60 6 32 -2 42 1 42 13 0 12 10
16 40 16 23 0 40 5 40 11 0 7 12 9 35 5 20 -4 40 -4 45 -1 12 8 1 35 -15 35
-20 0 -39 27 -23 33 8 3 5 6 -7 7 -15 1 -12 5 15 20 19 10 82 48 140 84 58 36
131 79 162 96 85 44 232 135 296 182 121 89 275 253 364 388 106 162 221 438
233 560 2 22 6 44 9 48 8 13 17 670 10 708 -8 46 -24 43 -24 -3 0 -26 -3 -34
-9 -24 -7 10 -11 5 -16 -18 -4 -17 -13 -44 -21 -60 -11 -22 -12 -39 -5 -70 5
-24 5 -41 0 -41 -5 0 -9 -5 -9 -12 0 -10 -26 -70 -66 -151 -8 -16 -14 -35 -14
-43 0 -8 -5 -14 -10 -14 -6 0 -9 -15 -8 -32 2 -26 -2 -35 -19 -43 -15 -6 -23
-19 -23 -35 0 -19 -9 -29 -40 -44 -22 -11 -40 -25 -40 -32 0 -7 -8 -15 -17
-18 -10 -3 -26 -19 -35 -36 -9 -16 -24 -30 -33 -30 -9 0 -14 -4 -11 -9 3 -4
-2 -17 -10 -27 -11 -14 -17 -15 -20 -6 -10 23 -34 13 -34 -14 0 -24 -3 -26
-30 -20 -23 4 -30 2 -30 -11 0 -21 -34 -50 -79 -64 -20 -7 -51 -25 -69 -40
-24 -22 -43 -29 -72 -29 -31 0 -40 -4 -40 -18 0 -19 -53 -47 -70 -37 -6 4 -16
18 -21 32 -8 21 -12 23 -24 13 -8 -7 -15 -19 -15 -27 0 -7 -7 -16 -15 -19 -8
-4 -15 -11 -15 -16 0 -15 -53 -68 -67 -68 -7 0 -13 -4 -13 -9 0 -10 -17 -13
-195 -31 -129 -14 -157 -19 -150 -30 9 -15 -14 -21 -36 -9 -17 9 -19 13 -8 20
12 8 12 10 0 18 -11 7 -10 10 4 18 12 7 14 12 6 17 -15 9 -42 -18 -44 -44 -1
-11 -8 -20 -17 -20 -12 -1 -11 -4 5 -16 18 -13 11 -15 -74 -13 -87 1 -92 3
-88 21 4 14 2 18 -10 14 -8 -3 -23 -6 -34 -6 -12 0 -19 -7 -19 -20 0 -11 -4
-20 -10 -20 -5 0 -10 9 -10 20 0 25 -27 27 -33 2 -4 -16 -5 -16 -6 1 -1 13
-10 17 -41 17 -29 0 -40 4 -40 15 0 21 -68 21 -76 0 -7 -17 -84 -22 -84 -5 0
6 -18 10 -40 10 -27 0 -40 4 -40 14 0 13 -42 27 -87 28 -32 0 -29 16 5 24 36
10 130 74 183 127 52 51 117 151 151 232 25 59 68 223 85 320 l8 50 70 -5 c39
-3 97 -4 130 -4 33 1 122 2 198 3 76 0 136 4 134 8 -3 5 24 6 59 5 90 -5 305
23 409 53 120 35 202 91 356 243 70 70 144 141 164 159 21 18 34 37 30 43 -5
8 -12 8 -23 -2 -29 -23 -64 -40 -70 -34 -3 4 3 13 14 21 26 20 14 19 -38 -3
-93 -40 -288 -74 -500 -88 l-108 -7 0 168 0 168 127 -8 c70 -4 152 -11 183
-16 30 -5 71 -9 90 -8 86 2 -129 37 -326 54 -68 6 -72 5 -78 -17 -13 -45 -34
51 -45 207 -21 302 -24 512 -7 655 9 74 18 155 21 180 3 25 8 59 12 75 10 49
11 179 0 193 -5 6 -28 12 -51 12 -26 0 -36 3 -28 9 27 17 -25 23 -298 33 -278
11 -577 2 -780 -22 -108 -14 -127 -19 -109 -31 9 -6 -4 -9 -38 -9 -43 0 -53
-3 -58 -20 -6 -20 3 -198 11 -211 2 -4 6 -31 9 -61 3 -29 8 -73 11 -98 15
-113 20 -210 37 -675 0 -11 0 -36 -1 -55 l-2 -35 -20 30 c-21 32 -27 27 -9 -7
6 -11 8 -22 5 -25 -5 -5 -74 134 -134 272 -37 84 -88 224 -147 400 -64 193
-77 237 -72 241 2 3 34 -82 70 -188 71 -210 187 -512 193 -505 2 2 -7 32 -21
66 -55 135 -132 376 -261 821 -74 256 -158 540 -186 632 l-51 167 -44 -1 c-35
0 -43 -4 -39 -17 3 -9 16 -54 30 -101 14 -47 37 -123 51 -170 15 -47 29 -94
32 -105 3 -11 20 -69 38 -130 70 -233 95 -333 89 -365 -5 -23 -3 -29 7 -25 11
4 14 -6 15 -42 0 -27 10 -69 22 -95 12 -26 22 -58 22 -71 0 -24 15 -86 75
-302 9 -33 30 -112 46 -175 16 -63 38 -142 49 -175 24 -73 60 -254 60 -301 0
-36 -15 -46 -24 -16 -4 15 -57 199 -102 357 -17 59 -251 977 -284 1113 -12 51
-24 91 -26 89 -6 -6 13 -94 42 -198 13 -47 28 -119 34 -160 19 -124 105 -476
221 -901 54 -200 67 -258 51 -243 -5 6 -20 50 -32 98 -13 48 -26 83 -30 77 -4
-7 4 -56 18 -111 13 -55 22 -102 19 -105 -3 -3 -15 0 -28 6 -18 10 -28 9 -59
-9 l-38 -21 -15 24 c-9 13 -21 62 -28 110 -7 47 -15 84 -18 81 -4 -2 -13 47
-20 108 -16 145 -37 284 -56 372 -15 66 -41 207 -70 375 -7 41 -25 129 -40
195 -14 66 -30 143 -36 170 -5 28 -44 188 -86 358 -67 270 -78 307 -95 307
-14 0 -18 -5 -14 -17z m253 -115 c-3 -8 -6 -5 -6 6 -1 11 2 17 5 13 3 -3 4
-12 1 -19z m20 -60 c-3 -8 -6 -5 -6 6 -1 11 2 17 5 13 3 -3 4 -12 1 -19z m83
-254 c24 -81 25 -108 1 -39 -22 62 -33 105 -27 105 3 0 14 -30 26 -66z m99
-316 c62 -199 81 -282 35 -153 -36 103 -106 326 -111 355 -10 60 18 -16 76
-202z m1394 47 c108 -4 197 -11 197 -15 0 -10 -168 -20 -350 -20 -398 -2 -683
0 -678 5 5 5 245 32 328 37 80 5 300 2 503 -7z m-319 -73 c19 -11 150 -22 246
-21 36 0 79 0 95 -1 50 -4 58 -3 97 5 47 9 56 -7 42 -76 -6 -26 -7 -46 -4 -44
4 3 7 -24 7 -59 0 -35 2 -67 5 -72 8 -14 6 -204 -2 -209 -4 -2 -3 -25 3 -51 8
-34 8 -51 -2 -66 -9 -14 -9 -23 -1 -33 6 -8 9 -38 5 -79 -3 -42 0 -90 9 -130
8 -34 18 -142 22 -239 6 -162 5 -177 -10 -183 -10 -4 -64 -1 -120 5 -59 7
-257 14 -462 15 -259 1 -365 5 -381 14 -27 15 -36 68 -28 172 7 88 7 67 2 255
-1 83 0 163 5 179 4 18 3 34 -3 42 -7 8 -6 14 2 19 6 4 9 19 5 36 -3 18 -1 29
5 29 8 0 8 5 -1 14 -6 8 -17 13 -24 10 -8 -3 -16 2 -20 11 -7 20 2 38 15 30 5
-4 9 -1 9 4 0 6 -7 11 -16 11 -21 0 -10 39 18 63 11 9 15 17 9 17 -16 0 -13
40 4 46 9 4 13 16 11 34 -4 33 -14 52 -26 45 -4 -2 -11 29 -15 70 -9 97 4 127
60 136 48 8 426 8 439 1z m-947 -664 c-3 -7 -5 -2 -5 12 0 14 2 19 5 13 2 -7
2 -19 0 -25z m20 -60 c-3 -8 -6 -5 -6 6 -1 11 2 17 5 13 3 -3 4 -12 1 -19z
m164 -376 c33 -68 69 -145 80 -170 11 -26 31 -61 45 -79 13 -17 24 -34 24 -36
0 -10 -57 8 -79 25 -13 10 -32 16 -41 13 -13 -4 -18 6 -27 52 -14 74 -18 89
-36 138 -14 37 -52 151 -62 185 -2 8 -18 58 -34 110 -45 139 -37 141 20 5 27
-66 77 -176 110 -243z m1089 -196 c25 -9 49 -18 55 -19 11 -2 29 -15 56 -39
16 -15 19 -30 17 -91 0 -41 2 -79 6 -86 4 -6 0 -11 -10 -11 -13 0 -14 -3 -4
-15 10 -12 10 -15 -1 -15 -12 0 -12 -2 0 -9 31 -20 -21 -26 -204 -25 -104 1
-257 7 -339 14 -83 7 -165 13 -184 14 -25 1 -37 8 -50 30 -9 16 -29 43 -44 59
-15 17 -24 34 -20 37 4 3 12 14 18 25 6 11 20 21 32 23 19 3 32 28 32 64 0 12
-6 15 -22 11 -23 -4 -23 -4 -3 12 11 9 28 14 37 11 10 -2 21 0 24 6 3 5 12 7
20 4 7 -3 15 -2 18 2 3 4 35 9 72 10 38 2 69 4 70 5 2 1 87 2 191 1 144 -2
199 -6 233 -18z m-1233 -61 c7 -27 16 -79 19 -114 l7 -63 -23 18 c-63 51 -91
92 -84 121 4 13 1 29 -5 37 -23 28 6 56 54 53 15 -2 23 -14 32 -52z m103 -11
c0 -8 -4 -12 -10 -9 -5 3 -10 10 -10 16 0 5 5 9 10 9 6 0 10 -7 10 -16z m-494
-142 c-4 -3 -14 2 -24 12 -16 18 -16 18 6 6 13 -6 21 -14 18 -18z m2604 -20
c0 -30 -318 -87 -540 -96 -71 -3 -104 -2 -85 3 17 5 59 9 94 10 157 3 451 53
529 90 1 0 2 -3 2 -7z m-2230 -44 c49 -21 50 -23 50 -65 0 -24 -3 -43 -6 -43
-10 0 -83 68 -78 73 3 2 -7 12 -21 21 -28 18 -33 36 -10 36 8 0 37 -10 65 -22z
m360 -18 c0 -5 -2 -10 -4 -10 -3 0 -8 5 -11 10 -3 6 -1 10 4 10 6 0 11 -4 11
-10z m1820 -14 c0 -12 -257 -76 -305 -76 -26 0 -33 -4 -29 -14 5 -12 -24 -30
-46 -29 -3 1 -14 -6 -25 -13 -11 -8 -42 -14 -71 -14 -45 0 -55 4 -93 39 l-42
38 168 8 c122 5 204 15 298 35 157 33 145 31 145 26z m-1393 -72 c-3 -3 -12
-4 -19 -1 -8 3 -5 6 6 6 11 1 17 -2 13 -5z m1095 -67 c-12 -7 -19 -16 -16 -20
4 -4 -6 -7 -22 -6 -16 0 -23 3 -14 6 8 4 21 12 28 20 7 7 21 13 30 13 13 -1
11 -4 -6 -13z m-1384 -66 c6 -1 12 -6 12 -12 0 -8 -17 -9 -57 -4 -32 4 -68 8
-80 9 -13 1 -23 4 -23 8 0 6 68 5 148 -1z m992 -35 l45 -15 -65 0 c-44 -1 -60
2 -50 9 19 12 -230 3 -280 -10 -51 -13 -333 -11 -341 2 -19 31 3 33 324 31
255 -1 331 -5 367 -17z m937 -138 c-3 -8 -6 -5 -6 6 -1 11 2 17 5 13 3 -3 4
-12 1 -19z m-53 -97 c3 -5 -1 -11 -9 -14 -9 -4 -12 -1 -8 9 6 16 10 17 17 5z
m-2074 -681 c-8 -5 -24 -9 -35 -9 l-20 0 20 9 c11 5 27 9 35 9 13 1 13 0 0 -9z
m-87 -17 c-7 -2 -21 -2 -30 0 -10 3 -4 5 12 5 17 0 24 -2 18 -5z m184 1 c-3
-3 -12 -4 -19 -1 -8 3 -5 6 6 6 11 1 17 -2 13 -5z m-124 -21 c-7 -2 -19 -2
-25 0 -7 3 -2 5 12 5 14 0 19 -2 13 -5z m164 -9 c-3 -3 -12 -4 -19 -1 -8 3 -5
6 6 6 11 1 17 -2 13 -5z m190 -990 c-3 -3 -12 -4 -19 -1 -8 3 -5 6 6 6 11 1
17 -2 13 -5z m130 -10 c-3 -3 -12 -4 -19 -1 -8 3 -5 6 6 6 11 1 17 -2 13 -5z
m-14 -21 c-13 -2 -33 -2 -45 0 -13 2 -3 4 22 4 25 0 35 -2 23 -4z m140 0 c-7
-2 -21 -2 -30 0 -10 3 -4 5 12 5 17 0 24 -2 18 -5z m100 0 c-13 -2 -33 -2 -45
0 -13 2 -3 4 22 4 25 0 35 -2 23 -4z m-45 -20 c-10 -2 -28 -2 -40 0 -13 2 -5
4 17 4 22 1 32 -1 23 -4z m169 1 c-3 -3 -12 -4 -19 -1 -8 3 -5 6 6 6 11 1 17
-2 13 -5z"/>
<path d="M2994 4261 c3 -5 16 -11 28 -14 22 -6 22 -5 4 8 -22 17 -40 20 -32 6z"/>
<path d="M2645 4250 c-3 -5 -2 -10 4 -10 5 0 13 5 16 10 3 6 2 10 -4 10 -5 0
-13 -4 -16 -10z"/>
<path d="M2463 4123 c-15 -5 -18 -49 -4 -57 4 -3 13 6 20 20 18 41 14 50 -16
37z"/>
<path d="M2426 4111 c-4 -7 -5 -15 -2 -18 9 -9 19 4 14 18 -4 11 -6 11 -12 0z"/>
<path d="M2320 4035 c0 -8 5 -15 10 -15 6 0 10 7 10 15 0 8 -4 15 -10 15 -5 0
-10 -7 -10 -15z"/>
<path d="M2440 4030 c0 -5 5 -10 10 -10 6 0 10 5 10 10 0 6 -4 10 -10 10 -5 0
-10 -4 -10 -10z"/>
<path d="M2258 3763 c6 -2 18 -2 25 0 6 3 1 5 -13 5 -14 0 -19 -2 -12 -5z"/>
<path d="M2260 3536 c0 -9 5 -16 10 -16 6 0 10 4 10 9 0 6 -4 13 -10 16 -5 3
-10 -1 -10 -9z"/>
<path d="M3543 2633 c15 -2 37 -2 50 0 12 2 0 4 -28 4 -27 0 -38 -2 -22 -4z"/>
<path d="M1380 4914 c0 -16 32 -115 37 -111 5 5 -26 117 -33 117 -2 0 -4 -3
-4 -6z"/>
<path d="M1410 4789 c0 -4 7 -22 15 -40 10 -25 14 -29 15 -13 0 17 -29 70 -30
53z"/>
<path d="M1442 4695 c0 -11 3 -29 8 -40 11 -25 11 1 0 35 -6 20 -8 21 -8 5z"/>
<path d="M1461 4614 c0 -11 3 -14 6 -6 3 7 2 16 -1 19 -3 4 -6 -2 -5 -13z"/>
<path d="M2020 3335 c0 -5 5 -17 10 -25 5 -8 10 -10 10 -5 0 6 -5 17 -10 25
-5 8 -10 11 -10 5z"/>
<path d="M1176 2874 c-17 -16 -21 -34 -8 -34 4 0 12 11 19 25 13 29 11 31 -11
9z"/>
<path d="M1187 2473 c-11 -10 -8 -43 3 -43 6 0 10 11 10 25 0 26 -2 29 -13 18z"/>
<path d="M1200 2243 c0 -13 5 -23 10 -23 13 0 13 11 0 30 -8 12 -10 11 -10 -7z"/>
<path d="M1360 2016 c0 -4 7 -14 15 -22 8 -9 15 -11 15 -6 0 5 -7 15 -15 22
-8 7 -15 9 -15 6z"/>
<path d="M3575 1850 c-3 -5 1 -10 9 -10 9 0 16 5 16 10 0 6 -4 10 -9 10 -6 0
-13 -4 -16 -10z"/>
<path d="M2358 1683 c7 -3 16 -2 19 1 4 3 -2 6 -13 5 -11 0 -14 -3 -6 -6z"/>
<path d="M2648 1683 c7 -3 16 -2 19 1 4 3 -2 6 -13 5 -11 0 -14 -3 -6 -6z"/>
<path d="M2810 1655 c0 -9 5 -15 11 -13 6 2 11 8 11 13 0 5 -5 11 -11 13 -6 2
-11 -4 -11 -13z"/>
<path d="M2276 1633 c-12 -12 -5 -23 14 -23 11 0 20 4 20 9 0 11 -26 22 -34
14z"/>
<path d="M2213 1616 c-10 -11 -9 -15 3 -20 21 -8 34 1 27 19 -6 18 -14 18 -30
1z"/>
</g>
</svg>
